<?xml version="1.0" encoding="UTF-8" standalone="no"?><!-- Generator: Gravit.io --><svg xmlns="http://www.w3.org/2000/svg" xmlns:xlink="http://www.w3.org/1999/xlink" style="isolation:isolate" viewBox="0 0 560 315" width="560pt" height="315pt"><defs><clipPath id="_clipPath_RyYrk7CxwcIwqhZim6Olw4zUbw7pOE2s"><rect width="560" height="315"/></clipPath></defs><g clip-path="url(#_clipPath_RyYrk7CxwcIwqhZim6Olw4zUbw7pOE2s)"><rect width="560" height="315" style="fill:rgb(221,221,221)"/><g><path d="M 187 73.5 L 373 73.5 C 384.038 73.5 393 82.462 393 93.5 L 393 221.5 C 393 232.538 384.038 241.5 373 241.5 L 187 241.5 C 175.962 241.5 167 232.538 167 221.5 L 167 93.5 C 167 82.462 175.962 73.5 187 73.5 Z" style="stroke:none;fill:#9A9A9A;stroke-miterlimit:10;"/><path d="M 193.509 89.5 L 366.491 89.5 C 372.291 89.5 377 94.209 377 100.009 L 377 214.991 C 377 220.791 372.291 225.5 366.491 225.5 L 193.509 225.5 C 187.709 225.5 183 220.791 183 214.991 L 183 100.009 C 183 94.209 187.709 89.5 193.509 89.5 Z" style="stroke:none;fill:#DDDDDD;stroke-miterlimit:10;"/><circle vector-effect="non-scaling-stroke" cx="215" cy="121.5" r="16" fill="rgb(154,154,154)"/><path d=" M 251.622 148.745 L 285.02 185.135 L 318.418 221.526 C 321.697 225.099 320.422 228 315.572 228 L 245.68 228 L 175.788 228 C 170.938 228 169.662 225.099 172.942 221.526 L 206.34 185.135 L 239.738 148.745 C 243.017 145.172 248.342 145.172 251.622 148.745 Z " fill="rgb(154,154,154)"/><path d=" M 313.277 117.512 L 350 171.4 L 386.723 225.289 C 390.187 230.373 388.005 234.5 381.853 234.5 L 307 234.5 L 232.147 234.5 C 225.995 234.5 223.813 230.373 227.277 225.289 L 264 171.4 L 300.723 117.512 C 304.187 112.428 309.813 112.428 313.277 117.512 Z " fill="rgb(154,154,154)"/></g></g></svg>